<?xml version="1.0" encoding="UTF-8" standalone="no"?>
<!-- Created with Inkscape (http://www.inkscape.org/) -->

<svg
   xmlns:dc="http://purl.org/dc/elements/1.1/"
   xmlns:cc="http://creativecommons.org/ns#"
   xmlns:rdf="http://www.w3.org/1999/02/22-rdf-syntax-ns#"
   xmlns:svg="http://www.w3.org/2000/svg"
   xmlns="http://www.w3.org/2000/svg"
   version="1.1"
   width="88.315216"
   height="100"
   viewBox="0 0 325.594 368.981"
   id="Layer_1"
   xml:space="preserve"><metadata
   id="metadata3032"><rdf:RDF><cc:Work
       rdf:about=""><dc:format>image/svg+xml</dc:format><dc:type
         rdf:resource="http://purl.org/dc/dcmitype/StillImage" /><dc:title></dc:title></cc:Work></rdf:RDF></metadata><defs
   id="defs3030" />
<path
   d="m 263.406,226.139 c 0,-35.051 0,-171.298 0,-171.298 H 253.941 61.859 L 41.055,67.14 v 246.999 h 212.887 v -22.035 h 30.598 c -0.001,0 -21.134,-16.965 -21.134,-65.965 z m -14,-37 H 212.965 V 150.14 h 36.441 v 38.999 z M 160.215,105.14 v 39 h -40.75 v -39 h 40.75 z m 6,0 h 40.75 v 39 h -40.75 v -39 z m -90.356,0 h 37.605 v 39 H 75.859 v -39 z m 0,45.001 h 37.605 V 189.14 H 75.859 v -38.999 z m 0,44.998 h 37.605 v 31.008 c 0,2.792 0.059,5.451 0.166,7.994 H 75.859 v -39.002 z m 43.606,31.008 v -31.008 h 40.75 v 31.008 c 0,2.792 0.059,5.451 0.166,7.994 h -40.745 c -0.111,-2.53 -0.171,-5.187 -0.171,-7.994 z m 0,-37.008 V 150.14 h 40.75 v 38.999 h -40.75 z m 46.75,-38.998 h 40.75 v 38.999 h -40.75 v -38.999 z m 83.191,-6 h -36.441 v -39 h 36.441 v 39 z m -135.412,96 c 1.581,19.828 6.476,31.323 11.354,37.963 H 86.224 C 85.272,277.26 83.679,275.477 82.007,272 79.486,266.76 76.54,257.077 75.967,240.141 h 38.027 z m 19.349,37.963 c -4.706,-4.322 -11.4,-14.504 -13.334,-37.963 h 40.735 c 1.581,19.828 6.476,31.323 11.354,37.963 h -38.755 z m 46.75,0 c -4.706,-4.322 -11.4,-14.504 -13.334,-37.963 h 40.735 c 1.581,19.828 6.476,31.323 11.354,37.963 h -38.755 z m -13.707,-43.963 c -0.11,-2.53 -0.171,-5.188 -0.171,-7.994 v -31.008 h 40.75 v 31.008 c 0,2.792 0.059,5.451 0.166,7.994 h -40.745 z m 46.579,-7.994 v -31.008 h 36.441 v 31 6.006 c 0,0.672 0.011,1.332 0.018,1.996 h -36.288 c -0.111,-2.53 -0.171,-5.187 -0.171,-7.994 z m 26.976,73.992 H 55.055 V 75.127 l 6.805,-4.022 c 0,37.728 0,130.511 0,163.042 0,54 21.133,57.957 21.133,57.957 h 156.949 v 8.035 z m 14,-22.035 h -14 -13.099 c -4.706,-4.322 -11.4,-14.504 -13.334,-37.963 h 36.072 c 0.635,14.755 3.059,27.463 7.253,37.963 h -2.892 z"
   id="path3026" />
</svg>